<?xml version="1.0" encoding="utf-8"?>
<!DOCTYPE svg PUBLIC "-//W3C//DTD SVG 1.1//EN" "http://www.w3.org/Graphics/SVG/1.1/DTD/svg11.dtd">
<svg version="1.1" xmlns="http://www.w3.org/2000/svg" xmlns:xlink="http://www.w3.org/1999/xlink" x="0px" y="0px" viewBox="0 0 1000 1000" enable-background="new 0 0 1000 1000" xml:space="preserve">
<g><g transform="translate(0.000000,511.000000) scale(0.100000,-0.100000)"><path fill="#ffffff" d="M4758.9,4992.3c-429.1-45.3-789.3-228.3-1108.1-559c-246-255.9-389.7-505.8-480.3-840.5l-45.3-165.3V1636.4V-154.7l45.3-175.2c118.1-468.4,435-907.4,846.4-1175.1c153.5-102.3,283.4-155.5,515.7-218.5c196.8-53.1,627.9-57.1,856.2-7.9c688.9,151.6,1249.8,688.9,1430.9,1369.9l45.3,167.3v1840.3v1840.3l-55.1,175.2c-98.4,314.9-228.3,535.4-442.9,751.9c-338.6,342.5-728.3,529.5-1206.5,578.7c-110.2,9.8-214.6,17.7-232.3,17.7C4910.5,5008,4835.7,5000.2,4758.9,4992.3z"/><path fill="#ffffff" d="M1814.4,1187.6c-47.2-25.6-112.2-84.6-145.6-129.9l-59-84.6l2-612.1c2-708.6,27.6-927.1,163.4-1332.5c177.1-529.5,438.9-932.9,883.7-1360.1c482.2-464.5,1025.5-747.9,1657.3-864.1c124-23.6,246-47.2,271.6-51.2c43.3-7.9,43.3-9.8,43.3-391.7v-383.8h-783.4h-783.4l-104.3-51.2c-63-31.5-127.9-84.6-163.4-133.9c-53.1-72.8-57.1-92.5-51.2-202.7c9.8-153.5,82.7-269.7,212.6-336.6l88.6-43.3l1972.2,4l1970.2,5.9l84.6,59.1c139.7,98.4,179.1,173.2,171.2,318.9c-9.8,143.7-78.7,261.8-192.9,330.6c-64.9,37.4-104.3,39.4-871.9,45.3l-801.1,5.9l3.9,385.8l5.9,385.8l226.3,37.4c655.4,110.2,1261.7,421.2,1743.9,895.6c602.3,590.5,934.9,1289.2,1009.7,2111.9c11.8,124,21.6,425.2,21.6,669.2c0,427.1-2,446.8-47.2,545.2c-68.9,145.7-179.1,222.4-320.8,222.4c-171.2,0-305.1-88.6-370-240.1c-23.6-61-29.5-171.2-29.5-610.2c0-620-21.6-816.8-127.9-1133.7c-131.9-393.7-336.6-706.6-665.3-1021.5c-525.5-501.9-1118-740.1-1834.4-740.1c-334.6,0-555.1,31.5-834.5,124c-755.8,246-1421.1,909.4-1675,1669.1c-100.4,303.1-120.1,472.4-131.9,1121.9l-11.8,596.4l-57.1,78.7c-31.5,43.3-84.6,94.5-120.1,116.1C2076.2,1248.6,1924.6,1244.7,1814.4,1187.6z"/></g></g>
</svg>